<svg xmlns="http://www.w3.org/2000/svg" xmlns:xlink="http://www.w3.org/1999/xlink" width="1200" height="694" contentScriptType="text/ecmascript" contentStyleType="text/css" preserveAspectRatio="xMidYMid" version="1.0" zoomAndPan="magnify"><defs><style type="text/css" xml:space="preserve">@import url(risk.css);</style></defs><g id="diagram-116" class="kite9-diagram" debug="position: ; horiz: CENTER; vert: CENTER; sizing: MINIMIZE; layout: RIGHT; d-bounds: [0.0,0.0] [1200.0,694.0];" kite9-elem="diagram" name="Development Process 1" style="kite9-layout:right;kite9-min-width:900pt"><g style="kite9-usage:decal;kite9-type:svg" class="kite9-back" kite9-elem="back" transform="scale(1.0,1.0)translate(-0.0,-0.0)"><rect width="1200" height="694" x="0" y="0" class="diagram-back" style="fill:#fff"/></g><g style="kite9-layout:down" class="kite9-group" debug="position: ; horiz: CENTER; vert: CENTER; sizing: MAXIMIZE; layout: DOWN; d-bounds: [40.0,40.0] [1120.0,614.0];" kite9-elem="group"><g style="kite9-layout:right;kite9-horizontal-align:left" class="kite9-group" debug="position: ; horiz: LEFT; vert: CENTER; sizing: MAXIMIZE; layout: RIGHT; d-bounds: [40.0,40.0] [1120.0,307.0];" kite9-elem="group" transform="translate(40.0,40.0)"><g style="kite9-min-width:200pt;kite9-horizontal-align:left" class="kite9-action" debug="position: ; horiz: LEFT; vert: CENTER; sizing: MINIMIZE; layout: null; d-bounds: [40.0,172.0] [266.0,44.0];" kite9-elem="action"><g style="kite9-usage:decal;kite9-type:svg" class="kite9-back" kite9-elem="back" transform="translate(0.0,132.0) scale(0.9941411934957303,0.9705882625183853)translate(0.6666666865348816,0.6666666865348816)"><polygon style="fill:url(#risk-background);stroke:#000;stroke-width:1pt" points="0 0 246 0 266 22 246 44 0 44"/></g><g style="kite9-usage:regular;kite9-type:container;kite9-layout:down;kite9-padding:10pt;kite9-padding-right:40pt" class="kite9-front" debug="position: ; horiz: CENTER; vert: CENTER; sizing: MINIMIZE; layout: DOWN; d-bounds: [87.0,172.0] [173.0,44.0];" kite9-elem="front"><g class="kite9-title" debug="position: ; horiz: LEFT; vert: BOTTOM; sizing: MINIMIZE; layout: HORIZONTAL; d-bounds: [100.0,185.0] [107.0,18.0];" kite9-elem="title"><g class="title-label-front"><g style="kite9-type:text" class="kite9-front" debug="position: ; horiz: CENTER; vert: CENTER; d-bounds: [100.0,185.0] [107.0,18.0];" kite9-elem="front"><g font-size="16"><text x="4945.227" y="13.6" stroke="none" transform="translate(0.0,132.0) translate(47.0,0.0) translate(13.0,13.0) translate(-4946.71875,1.8687496185302734)" xml:space="preserve"><tspan>F</tspan><tspan>ast </tspan><tspan>Feedback</tspan></text></g></g></g></g></g></g><g id="d" class="kite9-context" debug="position: ; horiz: RIGHT; vert: CENTER; sizing: MINIMIZE; layout: null; d-bounds: [930.0,66.0] [204.0,255.0];" kite9-elem="context" transform="translate(890.0,26.0)" style="kite9-horizontal-align:right"><g class="kite9-hidden" debug="position: ; horiz: CENTER; vert: CENTER; sizing: MINIMIZE; layout: null; d-bounds: [946.0,82.0] [172.0,212.0];" kite9-elem="hidden"><g class="attendant kite9-risk" debug="position: ; horiz: CENTER; vert: CENTER; sizing: MINIMIZE; layout: null; d-bounds: [946.0,82.0] [172.0,212.0];" kite9-elem="risk"><g class="kite9-risk-box" debug="position: ; horiz: CENTER; vert: CENTER; sizing: MINIMIZE; layout: VERTICAL; d-bounds: [959.0,95.0] [146.0,186.0];" kite9-elem="risk-box"><g style="kite9-usage:decal;kite9-type:svg" class="kite9-back" kite9-elem="back" transform="translate(16.0,16.0) translate(13.0,13.0) scale(0.9909502604540746,0.9928825892352064)translate(0.6666666865348816,0.6666666865348816)"><rect width="146" height="186" x="0" y="0" class="risk-back" rx="8pt" ry="8pt" style="fill:url(#risk-background)"/></g><g class="risk"><g class="kite9-code" debug="position: ; horiz: CENTER; vert: TOP; sizing: MINIMIZE; layout: null; d-bounds: [1008.0,108.0] [48.0,29.0];" kite9-elem="code"><g class="code-label-front"><g style="kite9-type:text" class="kite9-front" debug="position: ; horiz: CENTER; vert: CENTER; d-bounds: [1008.0,108.0] [48.0,29.0];" kite9-elem="front"><g font-size="25.333"><text x="4974.469" y="21.533" stroke="none" transform="translate(16.0,16.0) translate(13.0,13.0) translate(49.0,13.0) translate(-4976.83154296875,2.958852767944336)" xml:space="preserve"><tspan>R</tspan><tspan>isk</tspan></text></g></g></g></g><g class="kite9-image" debug="position: ; horiz: CENTER; vert: TOP; sizing: MINIMIZE; layout: null; d-bounds: [999.0,150.0] [66.0,66.0];" kite9-elem="image" transform="translate(16.0,16.0) translate(13.0,13.0) translate(40.0,55.0)"><image xmlns:xlink="http://www.w3.org/1999/xlink" width="50pt" height="50pt" x="0" y="0" preserveAspectRatio="xMidYMid meet" xlink:actuate="onLoad" xlink:href="redesign/risks/attendant_risk_v2.svg" xlink:show="embed" xlink:type="simple"/></g><g class="kite9-title" debug="position: ; horiz: CENTER; vert: BOTTOM; sizing: MINIMIZE; layout: HORIZONTAL; d-bounds: [990.0,250.0] [85.0,18.0];" kite9-elem="title"><g class="title-label-front"><g style="kite9-type:text" class="kite9-front" debug="position: ; horiz: CENTER; vert: CENTER; d-bounds: [990.0,250.0] [85.0,18.0];" kite9-elem="front"><g font-size="16"><text x="4956.117" y="13.6" stroke="none" transform="translate(16.0,16.0) translate(13.0,13.0) translate(31.0,155.0) translate(-4956.8984375,1.8687496185302734)" xml:space="preserve"><tspan>S</tspan><tspan>ome </tspan><tspan>Risks</tspan></text></g></g></g></g></g></g></g><g style="kite9-usage:decal;kite9-type:svg;kite9-transform:position" class="kite9-back" kite9-elem="back"><g style="fill-opacity:.2;kite9-template:url(redesign/decals/hidden_risk_v2.svg)" transform="translate(16.0,16.0) scale(0.7478260869565218) translate(140,-20)"><title><g class="title-label-front"><g style="kite9-type:text" class="kite9-front" debug="position: ; horiz: CENTER; vert: CENTER; d-bounds: null null;" kite9-elem="front"><g fill="#000" fill-opacity=".2" stroke="#000" stroke-opacity=".2" font-size="16"><text x="4930.695" y="13.6" stroke="none" transform="translate(-5876.828125,-80.13125038146973)" xml:space="preserve"><tspan>A</tspan><tspan>rtboard </tspan><tspan>Copy </tspan><tspan>12</tspan></text></g></g></g></title><desc>Created with Sketch.</desc><g><g><path d="M71.7,66.8c-4.2,1-12,1.4-25.6,1c-16.6-0.4-27.3-0.1-31.8-0.9c-0.1,0-0.2,0-0.3,0C6.7,67,0.9,61.1,0.9,53.8 S6.7,40.7,14,40.7c0.2,0,0.3,0,0.5,0c0,0,0,0,0,0c0-7,5.7-12.7,12.7-12.7c1.8,0,3.5,0.4,5,1c2.8-7,9.7-11.9,17.6-11.9 c10.5,0,19,8.5,19,19c0,0.6,0,1.2-0.1,1.8c0.3,0,0.7,0,1,0c8,0,14.5,6.5,14.5,14.5C84.2,59.8,78.8,65.9,71.7,66.8z"/></g></g></g></g></g><g id="4" class="kite9-label" debug="position: ; horiz: CENTER; vert: CENTER; sizing: MINIMIZE; layout: null; d-bounds: [972.0,294.0] [120.0,27.0];" kite9-elem="label"><g class="container-label-front"><g style="kite9-type:text" class="kite9-front" debug="position: ; horiz: CENTER; vert: CENTER; d-bounds: [977.0,299.0] [110.0,17.0];" kite9-elem="front"><g font-size="14.667"><text x="0" y="12.467" stroke="none" transform="translate(42.0,228.0) translate(4.87825520336628,6.713020324707031)" xml:space="preserve"><tspan>A</tspan><tspan>ttendant </tspan><tspan>Risks</tspan></text></g></g></g></g><g style="kite9-usage:decal;kite9-type:svg" class="kite9-back" kite9-elem="back" transform="scale(0.9935064933142286,0.9947984393776473)translate(0.6666666865348816,0.6666666865348816)"><rect width="204" height="255" x="0" y="0" class="context-back" rx="16" ry="16"/></g></g></g><g style="kite9-layout:right;kite9-horizontal-align:left" class="kite9-group" debug="position: ; horiz: LEFT; vert: CENTER; sizing: MAXIMIZE; layout: RIGHT; d-bounds: [40.0,347.0] [1120.0,307.0];" kite9-elem="group" transform="translate(40.0,40.0) translate(0.0,307.0)"><g style="kite9-min-width:200pt;kite9-horizontal-align:left" class="kite9-action" debug="position: ; horiz: LEFT; vert: CENTER; sizing: MINIMIZE; layout: null; d-bounds: [40.0,479.0] [266.0,44.0];" kite9-elem="action"><g style="kite9-usage:decal;kite9-type:svg" class="kite9-back" kite9-elem="back" transform="translate(0.0,132.0) scale(0.9941411934957303,0.9705882625183853)translate(0.6666666865348816,0.6666666865348816)"><polygon style="fill:url(#risk-background);stroke:#000;stroke-width:1pt" points="0 0 246 0 266 22 246 44 0 44"/></g><g style="kite9-usage:regular;kite9-type:container;kite9-layout:down;kite9-padding:10pt;kite9-padding-right:40pt" class="kite9-front" debug="position: ; horiz: CENTER; vert: CENTER; sizing: MINIMIZE; layout: DOWN; d-bounds: [64.0,479.0] [219.0,44.0];" kite9-elem="front"><g class="kite9-title" debug="position: ; horiz: LEFT; vert: BOTTOM; sizing: MINIMIZE; layout: HORIZONTAL; d-bounds: [77.0,492.0] [153.0,18.0];" kite9-elem="title"><g class="title-label-front"><g style="kite9-type:text" class="kite9-front" debug="position: ; horiz: CENTER; vert: CENTER; d-bounds: [77.0,492.0] [153.0,18.0];" kite9-elem="front"><g font-size="16"><text x="4922.961" y="13.6" stroke="none" transform="translate(0.0,132.0) translate(24.0,0.0) translate(13.0,13.0) translate(-4923.1015625,1.8687496185302734)" xml:space="preserve"><tspan>T</tspan><tspan>horough </tspan><tspan>Feedback</tspan></text></g></g></g></g></g></g><g id="d" class="kite9-context" debug="position: ; horiz: RIGHT; vert: CENTER; sizing: MINIMIZE; layout: null; d-bounds: [758.0,373.0] [376.0,255.0];" kite9-elem="context" transform="translate(718.0,26.0)" style="kite9-horizontal-align:right"><g class="kite9-hidden" debug="position: ; horiz: CENTER; vert: CENTER; sizing: MINIMIZE; layout: null; d-bounds: [774.0,389.0] [172.0,212.0];" kite9-elem="hidden"><g class="attendant kite9-risk" debug="position: ; horiz: CENTER; vert: CENTER; sizing: MINIMIZE; layout: null; d-bounds: [774.0,389.0] [172.0,212.0];" kite9-elem="risk"><g class="kite9-risk-box" debug="position: ; horiz: CENTER; vert: CENTER; sizing: MINIMIZE; layout: VERTICAL; d-bounds: [787.0,402.0] [146.0,186.0];" kite9-elem="risk-box"><g style="kite9-usage:decal;kite9-type:svg" class="kite9-back" kite9-elem="back" transform="translate(16.0,16.0) translate(13.0,13.0) scale(0.9909502604540746,0.9928825892352064)translate(0.6666666865348816,0.6666666865348816)"><rect width="146" height="186" x="0" y="0" class="risk-back" rx="8pt" ry="8pt" style="fill:url(#risk-background)"/></g><g class="risk"><g class="kite9-code" debug="position: ; horiz: CENTER; vert: TOP; sizing: MINIMIZE; layout: null; d-bounds: [836.0,415.0] [48.0,29.0];" kite9-elem="code"><g class="code-label-front"><g style="kite9-type:text" class="kite9-front" debug="position: ; horiz: CENTER; vert: CENTER; d-bounds: [836.0,415.0] [48.0,29.0];" kite9-elem="front"><g font-size="25.333"><text x="4974.469" y="21.533" stroke="none" transform="translate(16.0,16.0) translate(13.0,13.0) translate(49.0,13.0) translate(-4976.83154296875,2.958852767944336)" xml:space="preserve"><tspan>R</tspan><tspan>isk</tspan></text></g></g></g></g><g class="kite9-image" debug="position: ; horiz: CENTER; vert: TOP; sizing: MINIMIZE; layout: null; d-bounds: [827.0,457.0] [66.0,66.0];" kite9-elem="image" transform="translate(16.0,16.0) translate(13.0,13.0) translate(40.0,55.0)"><image xmlns:xlink="http://www.w3.org/1999/xlink" width="50pt" height="50pt" x="0" y="0" preserveAspectRatio="xMidYMid meet" xlink:actuate="onLoad" xlink:href="redesign/risks/attendant_risk_v2.svg" xlink:show="embed" xlink:type="simple"/></g><g class="kite9-title" debug="position: ; horiz: CENTER; vert: BOTTOM; sizing: MINIMIZE; layout: HORIZONTAL; d-bounds: [820.0,557.0] [81.0,18.0];" kite9-elem="title"><g class="title-label-front"><g style="kite9-type:text" class="kite9-front" debug="position: ; horiz: CENTER; vert: CENTER; d-bounds: [820.0,557.0] [81.0,18.0];" kite9-elem="front"><g font-size="16"><text x="4957.73" y="13.6" stroke="none" transform="translate(16.0,16.0) translate(13.0,13.0) translate(33.0,155.0) translate(-4959.22265625,1.8687496185302734)" xml:space="preserve"><tspan>M</tspan><tspan>ore </tspan><tspan>Risks</tspan></text></g></g></g></g></g></g></g><g style="kite9-usage:decal;kite9-type:svg;kite9-transform:position" class="kite9-back" kite9-elem="back"><g style="fill-opacity:.2;kite9-template:url(redesign/decals/hidden_risk_v2.svg)" transform="translate(16.0,16.0) scale(0.7478260869565218) translate(140,-20)"><title><g class="title-label-front"><g style="kite9-type:text" class="kite9-front" debug="position: ; horiz: CENTER; vert: CENTER; d-bounds: null null;" kite9-elem="front"><g fill="#000" fill-opacity=".2" stroke="#000" stroke-opacity=".2" font-size="16"><text x="4930.695" y="13.6" stroke="none" transform="translate(-5704.828125,-387.1312503814697)" xml:space="preserve"><tspan>A</tspan><tspan>rtboard </tspan><tspan>Copy </tspan><tspan>12</tspan></text></g></g></g></title><desc>Created with Sketch.</desc><g><g><path d="M71.7,66.8c-4.2,1-12,1.4-25.6,1c-16.6-0.4-27.3-0.1-31.8-0.9c-0.1,0-0.2,0-0.3,0C6.7,67,0.9,61.1,0.9,53.8 S6.7,40.7,14,40.7c0.2,0,0.3,0,0.5,0c0,0,0,0,0,0c0-7,5.7-12.7,12.7-12.7c1.8,0,3.5,0.4,5,1c2.8-7,9.7-11.9,17.6-11.9 c10.5,0,19,8.5,19,19c0,0.6,0,1.2-0.1,1.8c0.3,0,0.7,0,1,0c8,0,14.5,6.5,14.5,14.5C84.2,59.8,78.8,65.9,71.7,66.8z"/></g></g></g></g></g><g class="attendant kite9-risk" debug="position: ; horiz: CENTER; vert: CENTER; sizing: MINIMIZE; layout: null; d-bounds: [946.0,389.0] [172.0,212.0];" kite9-elem="risk"><g class="kite9-risk-box" debug="position: ; horiz: CENTER; vert: CENTER; sizing: MINIMIZE; layout: VERTICAL; d-bounds: [959.0,402.0] [146.0,186.0];" kite9-elem="risk-box"><g style="kite9-usage:decal;kite9-type:svg" class="kite9-back" kite9-elem="back" transform="translate(188.0,16.0) translate(13.0,13.0) scale(0.9909502604540746,0.9928825892352064)translate(0.6666666865348816,0.6666666865348816)"><rect width="146" height="186" x="0" y="0" class="risk-back" rx="8pt" ry="8pt" style="fill:url(#risk-background)"/></g><g class="risk"><g class="kite9-code" debug="position: ; horiz: CENTER; vert: TOP; sizing: MINIMIZE; layout: null; d-bounds: [1008.0,415.0] [48.0,29.0];" kite9-elem="code"><g class="code-label-front"><g style="kite9-type:text" class="kite9-front" debug="position: ; horiz: CENTER; vert: CENTER; d-bounds: [1008.0,415.0] [48.0,29.0];" kite9-elem="front"><g font-size="25.333"><text x="4974.469" y="21.533" stroke="none" transform="translate(188.0,16.0) translate(13.0,13.0) translate(49.0,13.0) translate(-4976.83154296875,2.958852767944336)" xml:space="preserve"><tspan>R</tspan><tspan>isk</tspan></text></g></g></g></g><g class="kite9-image" debug="position: ; horiz: CENTER; vert: TOP; sizing: MINIMIZE; layout: null; d-bounds: [999.0,457.0] [66.0,66.0];" kite9-elem="image" transform="translate(188.0,16.0) translate(13.0,13.0) translate(40.0,55.0)"><image xmlns:xlink="http://www.w3.org/1999/xlink" width="50pt" height="50pt" x="0" y="0" preserveAspectRatio="xMidYMid meet" xlink:actuate="onLoad" xlink:href="redesign/risks/attendant_risk_v2.svg" xlink:show="embed" xlink:type="simple"/></g><g class="kite9-title" debug="position: ; horiz: CENTER; vert: BOTTOM; sizing: MINIMIZE; layout: HORIZONTAL; d-bounds: [980.0,557.0] [105.0,18.0];" kite9-elem="title"><g class="title-label-front"><g style="kite9-type:text" class="kite9-front" debug="position: ; horiz: CENTER; vert: CENTER; d-bounds: [980.0,557.0] [105.0,18.0];" kite9-elem="front"><g font-size="16"><text x="4946.746" y="13.6" stroke="none" transform="translate(188.0,16.0) translate(13.0,13.0) translate(21.0,155.0) translate(-4947.52734375,1.8687496185302734)" xml:space="preserve"><tspan>S</tspan><tspan>chedule </tspan><tspan>Risk</tspan></text></g></g></g></g></g></g></g><g id="4" class="kite9-label" debug="position: ; horiz: CENTER; vert: CENTER; sizing: MINIMIZE; layout: null; d-bounds: [886.0,601.0] [120.0,27.0];" kite9-elem="label"><g class="container-label-front"><g style="kite9-type:text" class="kite9-front" debug="position: ; horiz: CENTER; vert: CENTER; d-bounds: [891.0,606.0] [110.0,17.0];" kite9-elem="front"><g font-size="14.667"><text x="0" y="12.467" stroke="none" transform="translate(128.0,228.0) translate(4.87825520336628,6.713020324707031)" xml:space="preserve"><tspan>A</tspan><tspan>ttendant </tspan><tspan>Risks</tspan></text></g></g></g></g><g style="kite9-usage:decal;kite9-type:svg" class="kite9-back" kite9-elem="back" transform="scale(0.9964664309904699,0.9947984393776473)translate(0.6666666865348816,0.6666666865348816)"><rect width="376" height="255" x="0" y="0" class="context-back" rx="16" ry="16"/></g></g></g></g></g><defs><linearGradient xmlns:xlink="http://www.w3.org/1999/xlink" id="risk-background" x1="0%" x2="0%" y1="0%" y2="100%" xlink:actuate="onLoad" xlink:show="other" xlink:type="simple"><stop offset="0%" stop-color="#FFF"/><stop offset="100%" stop-color="#DDD"/></linearGradient><filter xmlns:xlink="http://www.w3.org/1999/xlink" id="dropshadow" height="130%" xlink:actuate="onLoad" xlink:show="other" xlink:type="simple"><feGaussianBlur in="SourceAlpha" stdDeviation="1"/><feOffset dx="2" dy="2"/><feColorMatrix type="matrix" values="0 0 0 0 .5 0 0 0 0 .5 0 0 0 0 .5 0 0 0 1 0"/><feMerge><feMergeNode/><feMergeNode in="SourceGraphic"/></feMerge></filter><marker id="arrow-end-marker" markerHeight="7" markerWidth="7" orient="auto" preserveAspectRatio="xMidYMid meet" refX="6" refY="4"><path d="M2,2 L6,4 L2,6" class="arrow-marker"/></marker><marker id="arrow-start-marker" markerHeight="7" markerWidth="7" orient="auto" preserveAspectRatio="xMidYMid meet" refX="2" refY="4"><path d="M6,2 L2,4 L6,6" class="arrow-marker"/></marker><marker id="circle-marker" markerHeight="6" markerWidth="6" preserveAspectRatio="xMidYMid meet" refX="3" refY="3"><circle cx="3" cy="3" r="2" class="circle-marker"/></marker></defs></svg>