<svg xmlns="http://www.w3.org/2000/svg" xmlns:xlink="http://www.w3.org/1999/xlink" width="1200" height="335" contentScriptType="text/ecmascript" contentStyleType="text/css" preserveAspectRatio="xMidYMid" version="1.0" zoomAndPan="magnify"><defs><style type="text/css" xml:space="preserve">@import url(risk.css);</style></defs><g id="diagram-113" class="kite9-diagram" debug="position: ; horiz: CENTER; vert: CENTER; sizing: MINIMIZE; layout: null; d-bounds: [0.0,0.0] [1200.0,335.0];" kite9-elem="diagram" name="Goal In Mind" style="kite9-min-width:900pt"><g style="kite9-usage:decal;kite9-type:svg" class="kite9-back" kite9-elem="back" transform="scale(1.0,1.0)translate(-0.0,-0.0)"><rect width="1200" height="335" x="0" y="0" class="diagram-back" style="fill:#fff"/></g><g id="c" bordered="true" class="kite9-context" debug="position: ; horiz: CENTER; vert: CENTER; sizing: MINIMIZE; layout: null; d-bounds: [68.0,40.0] [376.0,255.0];" kite9-elem="context" transform="translate(68.0,40.0)"><g id="id_0" class="attendant kite9-risk" debug="position: ; horiz: CENTER; vert: CENTER; sizing: MINIMIZE; layout: null; d-bounds: [84.0,56.0] [172.0,212.0];" kite9-elem="risk"><g class="kite9-risk-box" debug="position: ; horiz: CENTER; vert: CENTER; sizing: MINIMIZE; layout: VERTICAL; d-bounds: [97.0,69.0] [146.0,186.0];" kite9-elem="risk-box"><g style="kite9-usage:decal;kite9-type:svg" class="kite9-back" kite9-elem="back" transform="translate(16.0,16.0) translate(13.0,13.0) scale(0.9909502604540746,0.9928825892352064)translate(0.6666666865348816,0.6666666865348816)"><rect width="146" height="186" x="0" y="0" class="risk-back" rx="8pt" ry="8pt" style="fill:url(#risk-background)"/></g><g class="risk"><g class="kite9-code" debug="position: ; horiz: CENTER; vert: TOP; sizing: MINIMIZE; layout: null; d-bounds: [146.0,82.0] [48.0,29.0];" kite9-elem="code"><g class="code-label-front"><g style="kite9-type:text" class="kite9-front" debug="position: ; horiz: CENTER; vert: CENTER; d-bounds: [146.0,82.0] [48.0,29.0];" kite9-elem="front"><g font-size="25.333"><text x="4974.469" y="21.533" stroke="none" transform="translate(16.0,16.0) translate(13.0,13.0) translate(49.0,13.0) translate(-4976.83154296875,2.958852767944336)" xml:space="preserve"><tspan>R</tspan><tspan>isk</tspan></text></g></g></g></g><g class="kite9-image" debug="position: ; horiz: CENTER; vert: TOP; sizing: MINIMIZE; layout: null; d-bounds: [137.0,124.0] [66.0,66.0];" kite9-elem="image" transform="translate(16.0,16.0) translate(13.0,13.0) translate(40.0,55.0)"><image xmlns:xlink="http://www.w3.org/1999/xlink" width="50pt" height="50pt" x="0" y="0" preserveAspectRatio="xMidYMid meet" xlink:actuate="onLoad" xlink:href="redesign/risks/attendant_risk_v2.svg" xlink:show="embed" xlink:type="simple"/></g><g class="kite9-title" debug="position: ; horiz: CENTER; vert: BOTTOM; sizing: MINIMIZE; layout: HORIZONTAL; d-bounds: [121.0,224.0] [98.0,18.0];" kite9-elem="title"><g class="title-label-front"><g style="kite9-type:text" class="kite9-front" debug="position: ; horiz: CENTER; vert: CENTER; d-bounds: [121.0,224.0] [98.0,18.0];" kite9-elem="front"><g font-size="16"><text x="4950.348" y="13.6" stroke="none" transform="translate(16.0,16.0) translate(13.0,13.0) translate(24.0,155.0) translate(-4950.36328125,1.8687496185302734)" xml:space="preserve"><tspan>W</tspan><tspan>asted </tspan><tspan>Time</tspan></text></g></g></g></g></g></g></g><g id="id_0" class="attendant kite9-risk" debug="position: ; horiz: CENTER; vert: CENTER; sizing: MINIMIZE; layout: null; d-bounds: [256.0,56.0] [172.0,212.0];" kite9-elem="risk"><g class="kite9-risk-box" debug="position: ; horiz: CENTER; vert: CENTER; sizing: MINIMIZE; layout: VERTICAL; d-bounds: [269.0,69.0] [146.0,186.0];" kite9-elem="risk-box"><g style="kite9-usage:decal;kite9-type:svg" class="kite9-back" kite9-elem="back" transform="translate(188.0,16.0) translate(13.0,13.0) scale(0.9909502604540746,0.9928825892352064)translate(0.6666666865348816,0.6666666865348816)"><rect width="146" height="186" x="0" y="0" class="risk-back" rx="8pt" ry="8pt" style="fill:url(#risk-background)"/></g><g class="risk"><g class="kite9-code" debug="position: ; horiz: CENTER; vert: TOP; sizing: MINIMIZE; layout: null; d-bounds: [318.0,82.0] [48.0,29.0];" kite9-elem="code"><g class="code-label-front"><g style="kite9-type:text" class="kite9-front" debug="position: ; horiz: CENTER; vert: CENTER; d-bounds: [318.0,82.0] [48.0,29.0];" kite9-elem="front"><g font-size="25.333"><text x="4974.469" y="21.533" stroke="none" transform="translate(188.0,16.0) translate(13.0,13.0) translate(49.0,13.0) translate(-4976.83154296875,2.958852767944336)" xml:space="preserve"><tspan>R</tspan><tspan>isk</tspan></text></g></g></g></g><g class="kite9-image" debug="position: ; horiz: CENTER; vert: TOP; sizing: MINIMIZE; layout: null; d-bounds: [309.0,124.0] [66.0,66.0];" kite9-elem="image" transform="translate(188.0,16.0) translate(13.0,13.0) translate(40.0,55.0)"><image xmlns:xlink="http://www.w3.org/1999/xlink" width="50pt" height="50pt" x="0" y="0" preserveAspectRatio="xMidYMid meet" xlink:actuate="onLoad" xlink:href="redesign/risks/attendant_risk_v2.svg" xlink:show="embed" xlink:type="simple"/></g><g class="kite9-title" debug="position: ; horiz: CENTER; vert: BOTTOM; sizing: MINIMIZE; layout: HORIZONTAL; d-bounds: [298.0,224.0] [89.0,18.0];" kite9-elem="title"><g class="title-label-front"><g style="kite9-type:text" class="kite9-front" debug="position: ; horiz: CENTER; vert: CENTER; d-bounds: [298.0,224.0] [89.0,18.0];" kite9-elem="front"><g font-size="16"><text x="4953.867" y="13.6" stroke="none" transform="translate(188.0,16.0) translate(13.0,13.0) translate(29.0,155.0) translate(-4955.359375,1.8687496185302734)" xml:space="preserve"><tspan>M</tspan><tspan>orale </tspan><tspan>Loss</tspan></text></g></g></g></g></g></g></g><g id="id_16" class="kite9-label" debug="position: ; horiz: CENTER; vert: CENTER; sizing: MINIMIZE; layout: null; d-bounds: [202.0,268.0] [109.0,27.0];" kite9-elem="label"><g class="container-label-front"><g style="kite9-type:text" class="kite9-front" debug="position: ; horiz: CENTER; vert: CENTER; d-bounds: [207.0,273.0] [99.0,17.0];" kite9-elem="front"><g font-size="14.667"><text x="0" y="12.467" stroke="none" transform="translate(134.0,228.0) translate(3.639322876930237,6.713020324707031)" xml:space="preserve"><tspan>I</tspan><tspan>nternal </tspan><tspan>Model</tspan></text></g></g></g></g><g style="kite9-usage:decal;kite9-type:svg" class="kite9-back" kite9-elem="back" transform="scale(0.9964664309904699,0.9947984393776473)translate(0.6666666865348816,0.6666666865348816)"><rect width="376" height="255" x="0" y="0" class="context-back" rx="16" ry="16"/></g></g><g class="kite9-action" debug="position: ; horiz: CENTER; vert: CENTER; sizing: MINIMIZE; layout: null; d-bounds: [499.0,146.0] [203.0,44.0];" kite9-elem="action"><g style="kite9-usage:decal;kite9-type:svg" class="kite9-back" kite9-elem="back" transform="translate(499.0,146.0) scale(0.9923368026587014,0.9705882625183853)translate(0.6666666865348816,0.6666666865348816)"><polygon style="fill:url(#risk-background);stroke:#000;stroke-width:1pt" points="0 0 183 0 203 22 183 44 0 44"/></g><g style="kite9-usage:regular;kite9-type:container;kite9-layout:down;kite9-padding:10pt;kite9-padding-right:40pt" class="kite9-front" debug="position: ; horiz: CENTER; vert: CENTER; sizing: MINIMIZE; layout: DOWN; d-bounds: [499.0,146.0] [203.0,44.0];" kite9-elem="front"><g class="kite9-title" debug="position: ; horiz: LEFT; vert: BOTTOM; sizing: MINIMIZE; layout: HORIZONTAL; d-bounds: [512.0,159.0] [137.0,18.0];" kite9-elem="title"><g class="title-label-front"><g style="kite9-type:text" class="kite9-front" debug="position: ; horiz: CENTER; vert: CENTER; d-bounds: [512.0,159.0] [137.0,18.0];" kite9-elem="front"><g font-size="16"><text x="4930.422" y="13.6" stroke="none" transform="translate(499.0,146.0) translate(13.0,13.0) translate(-4930.5546875,1.8687496185302734)" xml:space="preserve"><tspan>A</tspan><tspan>utomate </tspan><tspan>Process</tspan></text></g></g></g></g></g></g><g id="c" bordered="true" class="kite9-context" debug="position: ; horiz: CENTER; vert: CENTER; sizing: MINIMIZE; layout: null; d-bounds: [756.0,40.0] [376.0,255.0];" kite9-elem="context" transform="translate(756.0,40.0)"><g class="kite9-hidden" debug="position: ; horiz: CENTER; vert: CENTER; sizing: MINIMIZE; layout: null; d-bounds: [772.0,56.0] [172.0,212.0];" kite9-elem="hidden"><g class="complexity kite9-risk" debug="position: ; horiz: CENTER; vert: CENTER; sizing: MINIMIZE; layout: null; d-bounds: [772.0,56.0] [172.0,212.0];" kite9-elem="risk"><g class="kite9-risk-box" debug="position: ; horiz: CENTER; vert: CENTER; sizing: MINIMIZE; layout: VERTICAL; d-bounds: [785.0,69.0] [146.0,186.0];" kite9-elem="risk-box"><g style="kite9-usage:decal;kite9-type:svg" class="kite9-back" kite9-elem="back" transform="translate(16.0,16.0) translate(13.0,13.0) scale(0.9909502604540746,0.9928825892352064)translate(0.6666666865348816,0.6666666865348816)"><rect width="146" height="186" x="0" y="0" class="risk-back" rx="8pt" ry="8pt" style="fill:url(#risk-background)"/></g><g class="risk"><g class="kite9-code" debug="position: ; horiz: CENTER; vert: TOP; sizing: MINIMIZE; layout: null; d-bounds: [843.0,82.0] [30.0,29.0];" kite9-elem="code"><g class="code-label-front"><g style="kite9-type:text" class="kite9-front" debug="position: ; horiz: CENTER; vert: CENTER; d-bounds: [843.0,82.0] [30.0,29.0];" kite9-elem="front"><g font-size="25.333"><text x="4983.468" y="21.533" stroke="none" transform="translate(16.0,16.0) translate(13.0,13.0) translate(58.0,13.0) translate(-4984.75439453125,2.958852767944336)" xml:space="preserve"><tspan>C</tspan><tspan>x</tspan></text></g></g></g></g><g class="kite9-image" debug="position: ; horiz: CENTER; vert: TOP; sizing: MINIMIZE; layout: null; d-bounds: [825.0,124.0] [66.0,66.0];" kite9-elem="image" transform="translate(16.0,16.0) translate(13.0,13.0) translate(40.0,55.0)"><image xmlns:xlink="http://www.w3.org/1999/xlink" width="50pt" height="50pt" x="0" y="0" preserveAspectRatio="xMidYMid meet" xlink:actuate="onLoad" xlink:href="redesign/risks/complexity_risk_v2.svg" xlink:show="embed" xlink:type="simple"/></g><g class="kite9-title" debug="position: ; horiz: CENTER; vert: BOTTOM; sizing: MINIMIZE; layout: HORIZONTAL; d-bounds: [815.0,206.0] [87.0,36.0];" kite9-elem="title"><g class="title-label-front"><g style="kite9-type:text" class="kite9-front" debug="position: ; horiz: CENTER; vert: CENTER; d-bounds: [815.0,206.0] [87.0,36.0];" kite9-elem="front"><g font-size="16"><text x="4955.887" y="13.6" stroke="none" transform="translate(16.0,16.0) translate(13.0,13.0) translate(30.0,137.0) translate(-4956.69921875,1.8687496185302734)" xml:space="preserve"><tspan>C</tspan><tspan>omplexity</tspan></text><text x="4983.875" y="31.2" stroke="none" transform="translate(16.0,16.0) translate(13.0,13.0) translate(30.0,137.0) translate(-4956.69921875,1.8687496185302734)" xml:space="preserve">Risk</text></g></g></g></g></g></g></g><g style="kite9-usage:decal;kite9-type:svg;kite9-transform:position" class="kite9-back" kite9-elem="back"><g style="fill-opacity:.2;kite9-template:url(redesign/decals/hidden_risk_v2.svg)" transform="translate(16.0,16.0) scale(0.7478260869565218) translate(140,-20)"><title><g class="title-label-front"><g style="kite9-type:text" class="kite9-front" debug="position: ; horiz: CENTER; vert: CENTER; d-bounds: null null;" kite9-elem="front"><g fill="#000" fill-opacity=".2" stroke="#000" stroke-opacity=".2" font-size="16"><text x="4930.695" y="13.6" stroke="none" transform="translate(-5702.828125,-54.13125038146973)" xml:space="preserve"><tspan>A</tspan><tspan>rtboard </tspan><tspan>Copy </tspan><tspan>12</tspan></text></g></g></g></title><desc>Created with Sketch.</desc><g><g><path d="M71.7,66.8c-4.2,1-12,1.4-25.6,1c-16.6-0.4-27.3-0.1-31.8-0.9c-0.1,0-0.2,0-0.3,0C6.7,67,0.9,61.1,0.9,53.8 S6.7,40.7,14,40.7c0.2,0,0.3,0,0.5,0c0,0,0,0,0,0c0-7,5.7-12.7,12.7-12.7c1.8,0,3.5,0.4,5,1c2.8-7,9.7-11.9,17.6-11.9 c10.5,0,19,8.5,19,19c0,0.6,0,1.2-0.1,1.8c0.3,0,0.7,0,1,0c8,0,14.5,6.5,14.5,14.5C84.2,59.8,78.8,65.9,71.7,66.8z"/></g></g></g></g></g><g class="kite9-hidden" debug="position: ; horiz: CENTER; vert: CENTER; sizing: MINIMIZE; layout: null; d-bounds: [944.0,56.0] [172.0,212.0];" kite9-elem="hidden"><g class="schedule kite9-risk" debug="position: ; horiz: CENTER; vert: CENTER; sizing: MINIMIZE; layout: null; d-bounds: [944.0,56.0] [172.0,212.0];" kite9-elem="risk"><g class="kite9-risk-box" debug="position: ; horiz: CENTER; vert: CENTER; sizing: MINIMIZE; layout: VERTICAL; d-bounds: [957.0,69.0] [146.0,186.0];" kite9-elem="risk-box"><g style="kite9-usage:decal;kite9-type:svg" class="kite9-back" kite9-elem="back" transform="translate(188.0,16.0) translate(13.0,13.0) scale(0.9909502604540746,0.9928825892352064)translate(0.6666666865348816,0.6666666865348816)"><rect width="146" height="186" x="0" y="0" class="risk-back" rx="8pt" ry="8pt" style="fill:url(#risk-background)"/></g><g class="risk"><g class="kite9-code" debug="position: ; horiz: CENTER; vert: TOP; sizing: MINIMIZE; layout: null; d-bounds: [1001.0,82.0] [58.0,29.0];" kite9-elem="code"><g class="code-label-front"><g style="kite9-type:text" class="kite9-front" debug="position: ; horiz: CENTER; vert: CENTER; d-bounds: [1001.0,82.0] [58.0,29.0];" kite9-elem="front"><g font-size="25.333"><text x="4968.501" y="21.533" stroke="none" transform="translate(188.0,16.0) translate(13.0,13.0) translate(44.0,13.0) translate(-4970.86328125,2.958852767944336)" xml:space="preserve"><tspan>D</tspan><tspan>-</tspan><tspan>Sh</tspan></text></g></g></g></g><g class="kite9-image" debug="position: ; horiz: CENTER; vert: TOP; sizing: MINIMIZE; layout: null; d-bounds: [997.0,124.0] [66.0,66.0];" kite9-elem="image" transform="translate(188.0,16.0) translate(13.0,13.0) translate(40.0,55.0)"><image xmlns:xlink="http://www.w3.org/1999/xlink" width="50pt" height="50pt" x="0" y="0" preserveAspectRatio="xMidYMid meet" xlink:actuate="onLoad" xlink:href="redesign/risks/dependency_schedule_risk_v2.svg" xlink:show="embed" xlink:type="simple"/></g><g class="kite9-title" debug="position: ; horiz: CENTER; vert: BOTTOM; sizing: MINIMIZE; layout: HORIZONTAL; d-bounds: [997.0,206.0] [67.0,36.0];" kite9-elem="title"><g class="title-label-front"><g style="kite9-type:text" class="kite9-front" debug="position: ; horiz: CENTER; vert: CENTER; d-bounds: [997.0,206.0] [67.0,36.0];" kite9-elem="front"><g font-size="16"><text x="4965.402" y="13.6" stroke="none" transform="translate(188.0,16.0) translate(13.0,13.0) translate(40.0,137.0) translate(-4966.18359375,1.8687496185302734)" xml:space="preserve"><tspan>S</tspan><tspan>chedule</tspan></text><text x="4983.875" y="31.2" stroke="none" transform="translate(188.0,16.0) translate(13.0,13.0) translate(40.0,137.0) translate(-4966.18359375,1.8687496185302734)" xml:space="preserve">Risk</text></g></g></g></g></g></g></g><g style="kite9-usage:decal;kite9-type:svg;kite9-transform:position" class="kite9-back" kite9-elem="back"><g style="fill-opacity:.2;kite9-template:url(redesign/decals/hidden_risk_v2.svg)" transform="translate(188.0,16.0) scale(0.7478260869565218) translate(140,-20)"><title><g class="title-label-front"><g style="kite9-type:text" class="kite9-front" debug="position: ; horiz: CENTER; vert: CENTER; d-bounds: null null;" kite9-elem="front"><g fill="#000" fill-opacity=".2" stroke="#000" stroke-opacity=".2" font-size="16"><text x="4930.695" y="13.6" stroke="none" transform="translate(-5874.828125,-54.13125038146973)" xml:space="preserve"><tspan>A</tspan><tspan>rtboard </tspan><tspan>Copy </tspan><tspan>12</tspan></text></g></g></g></title><desc>Created with Sketch.</desc><g><g><path d="M71.7,66.8c-4.2,1-12,1.4-25.6,1c-16.6-0.4-27.3-0.1-31.8-0.9c-0.1,0-0.2,0-0.3,0C6.7,67,0.9,61.1,0.9,53.8 S6.7,40.7,14,40.7c0.2,0,0.3,0,0.5,0c0,0,0,0,0,0c0-7,5.7-12.7,12.7-12.7c1.8,0,3.5,0.4,5,1c2.8-7,9.7-11.9,17.6-11.9 c10.5,0,19,8.5,19,19c0,0.6,0,1.2-0.1,1.8c0.3,0,0.7,0,1,0c8,0,14.5,6.5,14.5,14.5C84.2,59.8,78.8,65.9,71.7,66.8z"/></g></g></g></g></g><g id="id_16" class="kite9-label" debug="position: ; horiz: CENTER; vert: CENTER; sizing: MINIMIZE; layout: null; d-bounds: [895.0,268.0] [99.0,27.0];" kite9-elem="label"><g class="container-label-front"><g style="kite9-type:text" class="kite9-front" debug="position: ; horiz: CENTER; vert: CENTER; d-bounds: [900.0,273.0] [89.0,17.0];" kite9-elem="front"><g font-size="14.667"><text x="0" y="12.467" stroke="none" transform="translate(139.0,228.0) translate(3.6321613788604736,6.713020324707031)" xml:space="preserve"><tspan>H</tspan><tspan>idden </tspan><tspan>Risks</tspan></text></g></g></g></g><g style="kite9-usage:decal;kite9-type:svg" class="kite9-back" kite9-elem="back" transform="scale(0.9964664309904699,0.9947984393776473)translate(0.6666666865348816,0.6666666865348816)"><rect width="376" height="255" x="0" y="0" class="context-back" rx="16" ry="16"/></g></g></g><defs><linearGradient xmlns:xlink="http://www.w3.org/1999/xlink" id="risk-background" x1="0%" x2="0%" y1="0%" y2="100%" xlink:actuate="onLoad" xlink:show="other" xlink:type="simple"><stop offset="0%" stop-color="#FFF"/><stop offset="100%" stop-color="#DDD"/></linearGradient><filter xmlns:xlink="http://www.w3.org/1999/xlink" id="dropshadow" height="130%" xlink:actuate="onLoad" xlink:show="other" xlink:type="simple"><feGaussianBlur in="SourceAlpha" stdDeviation="1"/><feOffset dx="2" dy="2"/><feColorMatrix type="matrix" values="0 0 0 0 .5 0 0 0 0 .5 0 0 0 0 .5 0 0 0 1 0"/><feMerge><feMergeNode/><feMergeNode in="SourceGraphic"/></feMerge></filter><marker id="arrow-end-marker" markerHeight="7" markerWidth="7" orient="auto" preserveAspectRatio="xMidYMid meet" refX="6" refY="4"><path d="M2,2 L6,4 L2,6" class="arrow-marker"/></marker><marker id="arrow-start-marker" markerHeight="7" markerWidth="7" orient="auto" preserveAspectRatio="xMidYMid meet" refX="2" refY="4"><path d="M6,2 L2,4 L6,6" class="arrow-marker"/></marker><marker id="circle-marker" markerHeight="6" markerWidth="6" preserveAspectRatio="xMidYMid meet" refX="3" refY="3"><circle cx="3" cy="3" r="2" class="circle-marker"/></marker></defs></svg>